
<svg xmlns="http://www.w3.org/2000/svg" version="1.1" xmlns:xlink="http://www.w3.org/1999/xlink" preserveAspectRatio="none" x="0px" y="0px" width="500px" height="500px" viewBox="0 0 500 500">
<defs>
<image id="Mapa_de_bits_1" x="0" y="0" width="490" height="402" xlink:href="./images/Mapa_de_bits_1.png"/>

<g id="Layer0_0_FILL">
<path fill="#00FFF7" stroke="none" d="
M 161.1 87.2
Q 155.7796875 75.7150390625 146.65 75.65
L 41.15 75.45
Q 27.555859375 76.5451171875 26.65 88.65 27.1208984375 102.192578125 41.55 103.35
L 138.85 103.35 287.1 405.8
Q 291.6291015625 413.584375 306 413.45
L 408.75 412.3
Q 419.170703125 410.6810546875 419.85 400.1 420.685546875 387.240234375 408.95 385.45
L 307.45 385.45 267.2 302.8 161.1 87.2
M 419.15 90.2
Q 419.5822265625 75.96640625 405.7 74.9
L 319.25 74.9
Q 308.1052734375 76.944921875 307.5 88.75 307.596875 102.821875 319.85 103
L 404.85 103
Q 417.3466796875 103.034375 419.15 90.2 Z"/>
</g>
</defs>

<g transform="matrix( 1, 0, 0, 1, 5,49) ">
<use xlink:href="#Mapa_de_bits_1"/>
</g>

<g transform="matrix( 1, 0, 0, 1, 0,0) ">
<use xlink:href="#Layer0_0_FILL"/>
</g>
</svg>
